# xmcd
#
# Track frame offsets: 
#        150
#        16318
#        33244
#        55988
#        65369
#        76651
#        96621
#        110936
#        134246
#        153844
#        165714
#
# Disc length: 2426 seconds
#
# Revision: 0
# Processed by: cddbd v1.5.2PL0 Copyright (c) Steve Scherf et al.
# Submitted via: ExactAudioCopy v0.95b4
#
DISCID=9309780b
DTITLE=Roger Eno and Plumbline - Transparencies
DYEAR=2006
DGENRE=Electronica
TTITLE0=Transparency
TTITLE1=Adaptation
TTITLE2=Siren 890
TTITLE3=With Insight
TTITLE4=Intersection
TTITLE5=Sodium Highlights
TTITLE6=Being Present
TTITLE7=A Few Streets Away
TTITLE8=Future Plans
TTITLE9=Every So Often
TTITLE10=It All Becomes Clear
EXTD=
EXTT0=
EXTT1=
EXTT2=
EXTT3=
EXTT4=
EXTT5=
EXTT6=
EXTT7=
EXTT8=
EXTT9=
EXTT10=
PLAYORDER=
